<svg xmlns="http://www.w3.org/2000/svg" width="41" height="41" viewBox="0 0 41 41" fill="none">
    <rect x="0.587646" y="0.552734" width="39.9667" height="39.9667" rx="8.32639" fill="#282C35"/>
    <path d="M20.5213 12.3845L18.5147 17.0556H16.508C16.1749 17.0556 15.8502 17.0805 15.5338 17.1472L16.3665 15.1488L16.3998 15.0739L16.4497 14.9407C16.4747 14.8824 16.4913 14.8324 16.5163 14.7908C17.4822 12.551 18.5646 11.8516 20.5213 12.3845Z" fill="#1FCB4F"/>
    <path d="M26.1749 17.2804L26.1582 17.2721C25.6586 17.1306 25.1507 17.0556 24.6345 17.0556H19.4222L21.2956 12.7009L21.3206 12.6426C21.4372 12.6843 21.5621 12.7426 21.687 12.7842L23.5271 13.5585C24.5512 13.9832 25.2673 14.4245 25.7086 14.9574C25.7835 15.0573 25.8502 15.1489 25.9168 15.2571C25.9917 15.3737 26.05 15.4903 26.0833 15.6152C26.1166 15.6901 26.1416 15.7567 26.1582 15.8316C26.2831 16.2563 26.2915 16.7392 26.1749 17.2804Z" fill="#1FCB4F"/>
    <path d="M21.0042 25.2487H21.2123C21.4621 25.2487 21.6703 25.0239 21.6703 24.7492C21.6703 24.3994 21.5703 24.3495 21.3539 24.2662L21.0042 24.1413V25.2487Z" fill="#1FCB4F"/>
    <path d="M25.8086 18.4711C25.4339 18.3628 25.0426 18.3045 24.6346 18.3045H16.508C15.9418 18.3045 15.409 18.4128 14.9094 18.6293C13.4606 19.2537 12.4448 20.6942 12.4448 22.3678V23.9915C12.4448 24.1913 12.4614 24.3828 12.4864 24.5826C12.6696 27.2304 14.0851 28.6459 16.7329 28.8208C16.9244 28.8457 17.1159 28.8624 17.324 28.8624H23.8186C26.8994 28.8624 28.523 27.397 28.6812 24.4827C28.6895 24.3245 28.6979 24.158 28.6979 23.9915V22.3678C28.6979 20.5277 27.4739 18.979 25.8086 18.4711ZM21.6371 23.4502C22.0201 23.5835 22.5363 23.8666 22.5363 24.7492C22.5363 25.5069 21.9452 26.1147 21.2125 26.1147H21.0043V26.2979C21.0043 26.5393 20.8128 26.7308 20.5713 26.7308C20.3299 26.7308 20.1383 26.5393 20.1383 26.2979V26.1147H20.0634C19.2641 26.1147 18.6063 25.4402 18.6063 24.6076C18.6063 24.3661 18.7978 24.1746 19.0393 24.1746C19.2807 24.1746 19.4722 24.3661 19.4722 24.6076C19.4722 24.9573 19.7387 25.2487 20.0634 25.2487H20.1383V23.8416L19.5055 23.6168C19.1225 23.4835 18.6063 23.2005 18.6063 22.3179C18.6063 21.5602 19.1975 20.9523 19.9302 20.9523H20.1383V20.7691C20.1383 20.5277 20.3299 20.3362 20.5713 20.3362C20.8128 20.3362 21.0043 20.5277 21.0043 20.7691V20.9523H21.0792C21.8786 20.9523 22.5363 21.6268 22.5363 22.4594C22.5363 22.7009 22.3448 22.8924 22.1034 22.8924C21.8619 22.8924 21.6704 22.7009 21.6704 22.4594C21.6704 22.1097 21.404 21.8183 21.0792 21.8183H21.0043V23.2254L21.6371 23.4502Z" fill="#1FCB4F"/>
    <path d="M19.4722 22.3179C19.4722 22.6677 19.5721 22.7176 19.7886 22.8009L20.1383 22.9258V21.8184H19.9302C19.6721 21.8184 19.4722 22.0432 19.4722 22.3179Z" fill="#1FCB4F"/>
</svg>