<svg xmlns="http://www.w3.org/2000/svg" width="41" height="41" viewBox="0 0 41 41" fill="none">
    <rect x="0.1875" y="0.552734" width="39.9667" height="39.9667" rx="8.32639" fill="#282C35"/>
    <path d="M20.7953 23.8H21.3365C21.8777 23.8 22.3273 23.317 22.3273 22.7342C22.3273 22.0098 22.0692 21.8682 21.6446 21.7184L20.8036 21.4269V23.8H20.7953Z" fill="#1FCB4F"/>
    <path d="M20.1459 12.1264C15.5498 12.1431 11.8279 15.8816 11.8445 20.4778C11.8612 25.074 15.5997 28.7958 20.1959 28.7792C24.7921 28.7625 28.514 25.024 28.4973 20.4278C28.4807 15.8317 24.7421 12.1181 20.1459 12.1264ZM22.0527 20.5361C22.7021 20.7609 23.5764 21.2438 23.5764 22.7342C23.5764 24.0165 22.5689 25.049 21.3366 25.049H20.7954V25.5319C20.7954 25.8733 20.5123 26.1564 20.1709 26.1564C19.8295 26.1564 19.5464 25.8733 19.5464 25.5319V25.049H19.2467C17.8812 25.049 16.7738 23.8999 16.7738 22.4844C16.7738 22.1431 17.0569 21.86 17.3982 21.86C17.7396 21.86 18.0227 22.1431 18.0227 22.4844C18.0227 23.2088 18.5723 23.8 19.2467 23.8H19.5464V20.9857L18.2892 20.5361C17.6397 20.3113 16.7654 19.8283 16.7654 18.3379C16.7654 17.0556 17.7729 16.0232 19.0052 16.0232H19.5464V15.5402C19.5464 15.1989 19.8295 14.9158 20.1709 14.9158C20.5123 14.9158 20.7954 15.1989 20.7954 15.5402V16.0232H21.0952C22.4607 16.0232 23.5681 17.1722 23.5681 18.5877C23.5681 18.9291 23.285 19.2122 22.9436 19.2122C22.6022 19.2122 22.3191 18.9291 22.3191 18.5877C22.3191 17.8633 21.7696 17.2721 21.0952 17.2721H20.7954V20.0864L22.0527 20.5361Z" fill="#1FCB4F"/>
    <path d="M18.0226 18.3462C18.0226 19.0706 18.2807 19.2121 18.7053 19.362L19.5463 19.6534V17.2721H19.0051C18.4639 17.2721 18.0226 17.755 18.0226 18.3462Z" fill="#1FCB4F"/>
</svg>