<svg xmlns="http://www.w3.org/2000/svg" width="41" height="41" viewBox="0 0 41 41" fill="none">
    <rect x="0.787415" y="0.552734" width="39.9667" height="39.9667" rx="8.32639" fill="#282C35"/>
    <path d="M29.0971 21.0523V22.7675C29.0971 23.2338 28.7141 23.6168 28.2395 23.6168H26.6325C25.7333 23.6168 24.909 22.959 24.834 22.0598C24.7841 21.5352 24.9839 21.0439 25.3336 20.7026C25.6417 20.3862 26.0663 20.203 26.5326 20.203H28.2395C28.7141 20.203 29.0971 20.586 29.0971 21.0523Z" fill="#1FCB4F"/>
    <path d="M23.5849 22.168C23.5099 21.2938 23.8263 20.4362 24.4591 19.8117C24.992 19.2705 25.7331 18.9541 26.5324 18.9541H27.007C27.2401 18.9541 27.4317 18.7625 27.3983 18.5294C27.1735 16.9141 25.7747 15.6651 24.1011 15.6651H15.7747C13.9346 15.6651 12.4442 17.1556 12.4442 18.9957V24.8242C12.4442 26.6643 13.9346 28.1547 15.7747 28.1547H24.1011C25.783 28.1547 27.1735 26.9058 27.3983 25.2904C27.4317 25.0573 27.2401 24.8658 27.007 24.8658H26.6323C25.0503 24.8658 23.7181 23.6834 23.5849 22.168ZM21.6032 20.4528H16.6073C16.266 20.4528 15.9829 20.178 15.9829 19.8283C15.9829 19.4786 16.266 19.2038 16.6073 19.2038H21.6032C21.9446 19.2038 22.2277 19.4869 22.2277 19.8283C22.2277 20.1697 21.9446 20.4528 21.6032 20.4528Z" fill="#1FCB4F"/>
    <path d="M22.6108 13.8583C22.8273 14.0831 22.6357 14.4161 22.3193 14.4161H15.7998C14.8922 14.4161 14.0429 14.6826 13.3352 15.1405C13.0104 15.3487 12.5691 15.1239 12.7273 14.7658C13.1936 13.6751 14.2844 12.9174 15.5417 12.9174H20.2211C21.187 12.9174 22.0446 13.2588 22.6108 13.8583Z" fill="#1FCB4F"/>
</svg>